# xmcd
#
# Track frame offsets: 
#        150
#        19015
#        31817
#        48431
#        66525
#        88873
#        108864
#        129782
#        148314
#        162295
#        176003
#        197023
#        211363
#        227332
#        245280
#
# Disc length: 3490 seconds
#
# Revision: 2
# Processed by: cddbd v1.5.2PL0 Copyright (c) Steve Scherf et al.
# Submitted via: ExactAudioCopy v0.99pb3
#
DISCID=c90da00f
DTITLE=Various Artist - FTV Beach - Life Essentials
DYEAR=2005
DGENRE=Electronic
TTITLE0=Max Hero Meets Prist - Miss U
TTITLE1=Ronan Feat. C. Shaw - Sunset
TTITLE2=Dual Sessions - Cheek to Cheek [Ronan Remix]
TTITLE3=Solimano - Skin of My Skin
TTITLE4=Index Feat. Dew - Neverending [Real XTC Mix]
TTITLE5=Raff and Mary F. - Living it All
TTITLE6=Liongold - Garden of the World [True Love Remix]
TTITLE7=Kauf Feat. Pirraglia - Destination: Love
TTITLE8=Rhod - In This World
TTITLE9=Quadra - Clap Your Hands [Hand in Hand Mix]
TTITLE10=Gain Over - We Got It
TTITLE11=(+) Confort - Nothing Since Then [The JC Remix]
TTITLE12=Golden Dreams - Pretty Stranger [Vocal Mix]
TTITLE13=Delta F 508 - Around
TTITLE14=No.oN - You and Me
EXTD=YEAR: 2005
EXTT0=
EXTT1=
EXTT2=
EXTT3=
EXTT4=
EXTT5=
EXTT6=
EXTT7=
EXTT8=
EXTT9=
EXTT10=
EXTT11=
EXTT12=
EXTT13=
EXTT14=
PLAYORDER=
